<?xml version="1.0" encoding="utf-8"?>
<!-- Generator: Adobe Illustrator 21.1.0, SVG Export Plug-In . SVG Version: 6.00 Build 0)  -->
<svg version="1.1" xmlns="http://www.w3.org/2000/svg" xmlns:xlink="http://www.w3.org/1999/xlink" x="0px" y="0px"
	 viewBox="0 0 1956.6 1416.1" style="enable-background:new 0 0 1956.6 1416.1;" xml:space="preserve">
<style type="text/css">
	.st0{display:none;}
	.st1{display:inline;fill:none;stroke:#000000;stroke-width:2;stroke-linecap:round;stroke-linejoin:round;stroke-miterlimit:10;}
	.st2{fill:none;stroke:#000000;stroke-width:2;stroke-linecap:round;stroke-linejoin:round;stroke-miterlimit:10;}
	.st3{display:inline;fill:none;}
</style>
<g id="Layer_17" class="st0">
	<path class="st1" d="M342.9,420.3c14,11.9,32.2,36.2,33.4,54.4c1.4,22.4-19,44.2-17.3,66.6c1.7,23.3,3.2,47.2,7.2,70.2
		c1.6,9.5,3.6,32,11,38.7c10.7,9.7,14,3.9,26.8,4.6c43,2.4,70,3.2,95.8,44.5c20.3,32.4,11,61.9-17.9,84
		c-19,14.5-26.7,10.4-19.4,37.6c4.6,17.2,14.6,36.8,25.1,51.5c25,34.8,53.3,36.9,92.8,34.3c34.1-2.2,66.8-11.3,100.6-15.9
		C716.1,886,751,887.7,786,880c11.1-2.4,83.7-19.4,88.4-6.8c1.6,4.4-22.5,32.8-24.6,36.4c-12.5,21.9-25.8,46.4-34.3,70.2
		c-14.1,39.8,1,84.9,6.2,125.5c3.4,25.9-1.7,18-22.1,31.4c-14.4,9.4-29.4,21.9-24.9,40.8c2.7,11.2,21.8,36.1,31.6,39.2
		c13,4.1,34.2-9.2,46.8-10.8c51-6.4,77.2,16.5,111.2,49.8c28.7,28.2,78.3,18.8,115.8,32.7c41.7,15.4,88.1,55,134.1,51.8
		c31.6-2.2,91.1-22.6,111.6-47.9c12.2-15.1,6.2-30.9,12-47.5c6.2-17.9,22.2-34,30.6-52.2c17.6-38.1,38.5-74.6,57.8-111.9
		c19.2-37.3,39.5-78.9,76.4-101.5c20.9-12.9,37.1-18.4,53.4-37.6c15.1-17.9,28.5-37,44.2-54.6c27.3-30.6,56-73,75.4-109.4
		c15.7-29.6,32.1-63.8,28.3-97.8c-5.4-49.1-11.9-97.6-26.9-145c-11.5-36.4-31.8-68.9-58.9-96.3c-36.4-36.8-83,1.7-127.6-14
		c-36-12.8-74.6-6.7-111.3-20.2c-43-15.7-82.8-33-119.4-61c-72.2-55.2-128.4-127.3-201.2-181.4c-36.1-26.8-73.5-51.7-116.8-65.8
		C903.3,83.6,858.8,79,818.8,71.5c-35.4-6.7-90.5-14.2-125.5-8.9c-33.4,5-72.4,34.4-99.9,52.6c-32.2,21.4-60.5,61.6-96.7,73.6
		c-42.1,13.9-90.7-1.7-133.8-4c-36.8-2-48,6.8-68.2,33.7c-10.7,14.2-22,24.4-29.2,40.9c-7.6,17.5-8.3,34.8-20,50.4
		c-20.6,27.2-99.6,75.4-26.3,94.3c20.2,5.2,45.2,9.6,65.8,11.9c17.8,2,42.1-10.3,56.9,3.7"/>
</g>
<g id="Layer_12" class="st0">
	<path class="st1" d="M1458.9,430.8c39.8,6.1,67,12.8,108.3,7.8c48.1-5.9,69.7,27.8,87.2,68.7c17.7,41.3,29.1,83.2,36.7,127.5
		c9.1,52.8,8,83.4-17.7,130.1c-42.6,77.6-95,159.6-170.4,207.5c-76.7,48.8-96.9,154.4-151.9,222.7c-23.7,29.4-21.2,77.6-52.9,98.1
		c-35.9,23.3-97.3,22.1-135.4,7c-41.1-16.3-88.8-28.6-127.8-49c-40.6-21.3-31.8-64.3-59.8-93.1c-30.7-31.6-79.1-4.3-112.6,6.8
		c-62.1,20.5-21.7-25.8-14.8-57.5c6.3-28.6-3.8-58.5-11.8-85.4C822,974,846,941.8,873.6,902.7c11-15.6,83.4-72.6,70.3-87.5
		c-15.5-17.8-88,32.6-104.1,38.3c-38,13.5-77.9,14.4-117.7,14.6c-40.5,0.2-72.2,9.5-110.5,21.2c-28.4,8.7-65.8,16.6-90.2-3.5
		c-19.9-16.4-47.2-58.8-36-85.1c10.6-25,42.5-40.6,57-64c19.6-31.6,17.4-65.9-15.1-86.4c-32.5-20.5-68.8-23.2-105.7-18.2
		c-17.6,2.3-32.4,8-39.3-13c-5.6-16.9,3.5-45.5,7.3-62c9.7-42,42.9-84.8,9.8-123.2c-35-40.6-71.5-44.8-120.7-45.8
		c-37.1-0.7-93.1-3.8-45-43.2c17.9-14.6,28.2-22.3,36.9-44.1c7.7-19.4,6.4-44.5,19.7-61.4c18.9-24,68.4-22.5,96.1-25
		c37.1-3.3,75.2,1.9,111.7-6.9c40.6-9.7,57.2-37.3,84-66.7c28.2-30.9,62.2-56,102.7-67.9c37.4-10.9,82.5-4.3,120.4,2.3
		c46.8,8.2,94.2,16,139.5,30.8c105.8,34.6,189.8,124.2,262.7,205c34.6,38.3,65.8,71.1,113.8,93.5c22.8,10.6,49.9,21.3,74.9,24.2
		C1417.3,431.5,1437.7,427.5,1458.9,430.8z"/>
</g>
<g id="Layer_18" class="st0">
	<path class="st1" d="M1346.9,434.8c38.1,7.9,74.7,5.9,112.9,10.8c44.6,5.7,100.4-5.3,142.3,11.6c38.5,15.5,45.4,49.6,56.4,85.1
		c13.6,43.9,26.3,86.6,31.8,132.5c5.3,44.3-14.2,78.1-37.5,114.9c-29.8,47-62.8,94.9-101.4,135.2c-30.6,32-70.9,50-98.8,84.8
		c-32.9,40.9-56.4,87.1-83.1,131.9c-10.8,18.1-24.1,34.4-34.9,52.4c-11.1,18.5-13.3,42.6-25.1,60.1c-20.7,30.7-69,41.2-103.1,35
		c-33.8-6.1-64.8-21.8-95.4-36.5c-38-18.3-76.3-29.7-96.6-69.1c-18.4-35.6-41.4-58.9-85-57.7c-9.2,0.3-48,13.5-56.9,6.5
		c-10.1-7.9,7.9-47.3,6.6-59.5c-3.3-31.1-31.9-56.2-32-88c-0.1-43.8,46.3-88.3,73.7-117.6c10.6-11.4,68.2-60,46.1-82
		c-17.5-17.4-74.9,16.7-91.7,26c-33.9,18.7-61.1,40.6-100.6,46.7c-31.4,4.9-62.6-3.7-93.8,0.3c-57.7,7.5-149.3,68.2-176.2-17.1
		c-9.9-31.4,5.3-52.4,26.4-75c25.4-27.1,45.2-51.6,63.2-84.6c15.1-27.8,30.2-55.4-1.8-77c-28.9-19.5-68.7-14.6-101.8-19.1
		c-41-5.6-51.5-32.6-55.3-71.2c-5-50.8-3.8-82.5-51.9-110c-17.6-10.1-34.5-23.6-53.6-30.4c-15.4-5.5-31.5-0.3-46.1-4.6
		c-39.5-11.7,8.3-63.2,21.6-83.5c22.2-34,38-32.8,75.5-41c16.7-3.7,33-9.7,50.3-9.8c19.7,0,37,8,56.8,5.4
		c81.1-10.6,96.5-120.9,170-152.1C733.1,56.4,825,79,898.3,105c54.1,19.1,100.5,45.4,148.8,75.7c42.3,26.5,87.5,53.8,119.2,93.4
		c27.4,34.2,36.8,78.3,67.5,111.8C1262.5,417.1,1306.9,426.5,1346.9,434.8z"/>
</g>
<g id="Layer_19" class="st0">
	<path class="st1" d="M1458.9,475.3c36.6,10.7,73.3-18.8,113-13.5c34.9,4.7,63.5,23.8,73.1,59.2c10.3,37.9,20.5,76.7,30.5,114.8
		c14.3,54.6,6.3,93.4-23.5,140.9c-22.9,36.5-46.7,74.4-73.9,107.9c-28.8,35.5-60.2,59.7-95.4,88.2c-33.2,26.9-56.5,62.5-82.3,96.3
		c-28.5,37.2-43.3,82.2-72,119c-21.8,28.1-50.9,42.6-84.4,53c-46.1,14.4-70.1,1.1-108.1-26.1c-34.8-24.9-59.4-52.8-82-88.8
		c-26.8-42.5-46.1-48.6-95.9-42.6c-19.5,2.3-35.9,10.6-47.9-6.7c-5.6-8-6.4-29.3-11.2-39.3c-17.8-37.3-23.4-66.1-7.2-106.2
		c14.1-35.1,35.6-52.7,65.4-73.8c29.6-21,68.5-43.9,55.7-85.3c-32.9-106.5-148.2,25.7-187.8,56.4c-59.6,46.2-131.8,3-199.9,17.7
		c-22.9,5-56.3,29.4-79,23.3c-30.5-8.1-41.4-60.4-24.8-83.3c18.1-24.9,48.3-38.4,67-64.5c17.2-24.1,38.2-52.8,45.7-82
		c19.3-76-82-77.1-124.2-104.2C474,513,468,477.3,446.9,443.2c-21.7-35.2-49-60.5-79.4-88c-20.1-18.2-62.3-46-27.9-71.3
		c29.8-21.9,75.6,4.3,109.3-0.7c67.7-10.2,106.9-71.1,141-122.7c45.4-68.8,111.8-84,191.1-79.3c46,2.7,82.6,21.5,124.2,40
		c45.1,20.2,72,52.6,111.7,80.4c36.6,25.6,82,33,116.8,60c37.2,28.9,50.9,73.3,74.9,112.3C1266.8,469,1366.6,448.4,1458.9,475.3z"/>
</g>
<g id="Layer_23" class="st0">
	<path class="st1" d="M1594.9,485.3c41.9,19.4,38.5,55.3,51.8,91.7c14.3,39.2,38.4,75.6,32.7,120.2c-5.3,41.8-40.1,83-63.2,117.1
		c-25.7,37.8-51.2,82.4-84.4,114c-27.1,25.9-60.4,44.4-86.9,71.1c-29,29.4-58.4,66.4-82.2,100.1c-17.9,25.4-18.9,64.1-45.4,83.7
		c-28.5,21-77.1,6.8-105.9-7.2c-34.9-16.9-78.4-36.5-98.1-71.7c-17.5-31.3-3.7-98.1-55.8-79.7c-33.1,11.7-80.7,38.3-116.2,15.2
		c-29.8-19.4-37.2-73.1-33.8-104.9c9-85.2,171.7-81.7,134.2-182.3c-38.3-102.6-158.4,3-198.5,43.1c-25.5,25.5-47.1,52.4-86.4,49.3
		c-32.6-2.6-63.3-16.7-96.6-17.4c-35.8-0.7-57.1,17.2-89.7,25.7c-29.9,7.7-45.3-18.3-41.7-47.5c3.8-30.2,30.7-39.1,50.2-57.5
		c21.9-20.6,44.3-46.4,59.3-72.6c41.7-72.7-26-111.4-86.7-127.8c-32.4-8.7-42.7-30.5-53.2-60.3c-13.6-38.6-35.3-69.6-62.6-99.8
		c-16.9-18.7-61-43.6-67-69.1c-10.1-43.2,52.2-24.7,73.1-25c67.3-0.9,120.2-60.7,150.8-114.5c15.3-26.8,24.9-50.1,52.4-67.5
		c24.9-15.8,59.8-22.1,89-24.6c47-3.9,87.1,10.2,130.9,25.7c50.6,17.8,78.8,33.7,107.5,79.1c30.1,47.6,53.3,55.9,106.5,62.3
		c47.3,5.7,73.2,24.7,94.2,67.4c39.9,80.8,71.7,165,174,166.1c42.4,0.5,90,13.3,131.6,3.4C1518.8,481.6,1553.5,466.1,1594.9,485.3z"
		/>
</g>
<g id="Layer_22">
	<path class="st2" d="M1152.4,1059.3c0-33.3,7.6-66.9,7.4-100.5c-0.1-8.9-0.6-36.3-14.9-38.3c-13.8-1.9-11.1,24.4-15.3,32.5
		c-16.6,32.2-69.8,44.2-101.8,51.6c-39.7,9.2-69.5,3.8-92.6-31.6c-63.7-97.7,88.1-99,121.3-165.7c44-88.3-49.9-132-121.9-98.6
		c-64.6,29.9-102.7,133-180.1,123.1c-31.1-4-57.5-17.6-89.5-17.3c-15.6,0.1-31.8,1.4-47.2,4.4c-13.8,2.7-28.9,12.9-42.3,14
		c-41.7,3.6-32.3-40.4-12-60.8c21.3-21.4,42.4-42.8,63.3-64.8c19.8-20.9,45.1-36.5,39.9-68.8c-5-31.1-32.5-59.3-54.1-80.4
		c-20.3-19.7-45.8-31-65.1-51.3c-22.3-23.4-36.5-55.3-46.6-85.7c-9-27-14.6-57.8,5.9-80.3c21.4-23.5,42.5-32,57.1-63.2
		c24.2-51.7,33.2-126.9,87.1-158.5c56.1-32.9,137.8-25.1,195.6-4.2c34.1,12.3,75.3,21.3,95.8,53.4c19.8,31,23.6,73.9,55.7,97.7
		c28.4,21,69.2,5.7,101.3,12.8c47.6,10.4,65.2,62.2,87.6,99.9c19.8,33.2,32.5,73.7,58.4,102.8c29,32.6,64.9,34.2,105.6,37.7
		c35.1,3,71.2,9.6,106.4,9.1c43.8-0.7,79.7-35.9,124.1-21.6c38.4,12.3,52.6,61.4,69.3,94.4c20.2,40.1,28.3,78.7,9.9,120.3
		c-19.5,44.2-53.5,78.4-77.3,119.9c-24.1,41.9-46.1,76.4-84.7,106.2c-33,25.5-63.6,52-89.3,84.8c-16.9,21.6-35.4,42.6-51.4,64.7
		c-12.1,16.7-21.3,43.2-38.6,55.4c-54.1,38.3-166.4-28.8-166.4-92.1"/>
</g>
<g id="Layer_20" class="st0">
	<path class="st1" d="M1549.9,585.8c79.7-17.8,144,60.8,105.2,133.8c-17.8,33.4-44.3,61.6-63.8,94c-23.3,38.8-40.8,81.5-74.1,113.4
		c-28.3,27.1-62.2,47.8-90.1,75.5c-31.5,31.3-56.7,67.4-85.4,101.1c-42.7,50.1-128.8,15-157.4-36.9c-18-32.6-9.5-70.3-5.6-105.1
		c2.8-24.8,19.7-91.1-18.9-99.4c-31.9-6.9-30,49.2-37.2,69c-14.8,40.9-55.9,58.5-97.2,55.3c-32-2.5-67.5-15.8-80.3-48.2
		c-17.1-43.4,51.1-49.9,79.5-63c39.1-18,55.9-38.2,60.2-81.2c3.8-37.7,8-79.6-30.3-98.8c-77.7-38.8-142.3,15.3-197.7,66
		c-20.4,18.7-46.9,56.5-75,62.9c-26.9,6.2-52.5-19.8-76.9-26.7c-21.9-6.2-48.8-1.5-70.7,2.7c-16.4,3.2-62.9,14.4-46.4-19
		c4.6-9.4,21.5-18.9,28.2-27.2c10.2-12.5,17.5-23.1,30.3-33.7c25.8-21.3,53.6-40,79.2-61.6c23.5-19.8,38.5-37.4-0.2-45.6
		c-30.9-6.5-52.4-2.6-75.2-28.7c-19.9-22.8-33.6-54.9-50-80.6c-17.7-27.7-34.8-58.2-45-89.6c-18.6-57.1,22.6-109.8,42.2-161.8
		c23.1-61.1,33.8-124.1,107.7-133.9c100.9-13.3,147.6,54.2,214.1,117.6c64.7,61.8,158.9,69.4,216.2,137
		c33.6,39.6,64,81.5,95.8,122.4c12.1,15.6,25.1,35.2,43.6,43.9c20.1,9.5,42,1.8,63,7c42.3,10.4,64.6,57,108.7,64.9
		C1482.1,618,1516.1,593.3,1549.9,585.8z"/>
</g>
<g id="Layer_21" class="st0">
	<path class="st1" d="M1609.9,613.3c85.6,26.6,14,126.5-12.1,169.9c-20.8,34.5-37.8,70.9-58.8,105.4c-20.5,33.7-51.8,53.5-81.1,79.4
		c-26.1,23.1-53.5,46.1-76.7,72.2c-20.2,22.8-37.7,62.8-74.2,60.9c-73.2-3.8-97.4-99.6-101.4-156.6c-2.3-33.3-2.4-76.5-34.2-97.3
		c-37.1-24.2-44.5,21.2-58,46.8c-13,24.6-31.5,48.7-59.1,57.7c-21.6,7-83.7,8.9-77.2-29.4c4.2-25.1,50.4-23,70.1-33.4
		c34.2-18,53.7-47.1,59.2-85c10.3-71.2-13.9-145.6-95.5-143.4c-73.9,2-130.7,70.5-182.7,115.7c-25.8,22.5-49.5,24-82.8,17.7
		c-24.7-4.7-70.1-13.2-66.8-48c2.1-22.6,37.3-35.7,55.1-46.1c26.3-15.4,55-34,74.5-58c13.7-17,25.1-49-1.8-60.6
		c-21.2-9.2-62.1,1.2-86.1-1.9c-66.3-8.6-81.1-59.2-101.4-115.1c-17.9-49.3-32.9-101.2-16.5-152.1c18.1-56.4,38-114.3,103.7-126
		c56.9-10.2,107.1,37.8,146.8,72.7c30.8,27.1,63.6,45.7,97.5,68.1c15.2,10.1,27.1,23.9,42,34.3c13.4,9.3,28.7,13.4,40.9,24.5
		c29.1,26.6,35.4,67.9,53.5,100.8c23,41.6,60.3,47.9,104,45.2c41.4-2.6,68.4,15.2,107,26.9c18.9,5.7,36.3,9.5,52.1,22.2
		c14.8,11.8,24.2,29.3,40.4,39.4c34.2,21.4,68,1.1,103.1-5.9C1530.6,607,1573.2,601.9,1609.9,613.3z"/>
</g>
<g id="Layer_2" class="st0">
	<rect x="136.8" y="-140.8" class="st3" width="1638" height="1638"/>
	<path class="st1" d="M1604.9,675.3c14.8,22.2-1.6,54.3-9.6,75.1c-10.6,27.9-19.3,56.3-32.2,83.2c-25.3,53.1-56.1,83.7-100.3,120.6
		c-39.7,33.1-74.2,83.6-122,105.4c-49.2,22.4-71.2-33.1-79.6-72.5c-4.9-23-4.9-47-10.2-70.1c-5.9-25.6-34.2-57-33.4-81.8
		c1.8-51.1,63.5-77.5,105.3-84.5c27.9-4.7,58.1-2.9,84.6-13.9c27.5-11.4,50.4-35.1,75.4-50.8
		C1513.3,667.1,1576.7,633.1,1604.9,675.3z"/>
	<path class="st1" d="M916.4,409.3c-1.7-33.8,8-64.4-26.6-82.1c-31.7-16.1-62.9-16.9-96.2-6.5c-29.3,9.1-56.8-1.5-84.7,12.4
		c-26.9,13.4-53,36.9-52.9,68.2c0.1,28.7,9.5,64.7,23.7,89.8c19,33.5,40.9,17.4,70.7,6.7C814.9,474.6,921.2,506.8,916.4,409.3z"/>
	<path class="st1" d="M1000.4,615.8c6.6,10.3-52.2,40-62.5,49c-21.2,18.5-39.3,39.7-59.4,59.2c-20.7,20-44.2,42.8-73.9,47.2
		c-13.9,2-55.1,0.3-66.1-12.1c-16.1-18.1,8.3-29.5,23-38.8c27.7-17.7,50.5-35.9,74.9-58.1c23.8-21.6,52.3-40.2,82.3-52.2
		C938.8,601.9,985.2,591.9,1000.4,615.8z"/>
	<path class="st1" d="M1490.9,633.3c26.6,15.4-67.5,86.3-84,88.3c-22,2.6-44.6-10-66-12.7c-28.6-3.6-49.4,7-72.7,22.7
		c-33.5,22.7-74.7,87.4-121.8,61c-21.2-11.9-21.7-45.7-28.8-66.9c-9.4-28.2-21.8-51.4-41.4-73.6c-16-18.1-30.3-25.7-7.4-44.2
		c15-12.1,40.3-22.2,58.1-29c19.1-7.3,58.5-23.8,78-20c20.2,4,42.9,19.3,63.2,26c21.5,7.1,43,13.8,60.1,29.3
		c15.5,14,22.5,40.7,42,49C1409,679.7,1459.6,615.2,1490.9,633.3z"/>
</g>
<g id="Layer_15" class="st0">
	<path class="st1" d="M1562.9,696.3c47.3,44-29.3,180.3-59.8,216.2c-32.7,38.6-177.3,178.4-201.4,73.8c-4.5-19.4-3.5-39.8-8.3-59.2
		c-5.7-22.7-20.1-37.6-28.8-58.4c-24.1-57.5,24-86.6,71.3-99.2c21.6-5.8,45-8.4,65.5-17.7c20.4-9.2,35-25.3,52.5-38.5
		C1478.9,694.3,1534.3,669.6,1562.9,696.3z"/>
	<path class="st1" d="M1179.9,647.3c28.6-3.3,74.4,30.7,60.9,62.5c-5,11.8-25,21.6-33.8,32.1c-10.1,12-19.3,29.4-36.6,32.5
		c-34.4,6.3-39.6-47-45.4-70.7C1114.2,659.9,1141.3,651.7,1179.9,647.3z"/>
	<path class="st1" d="M897.5,409.8c-40.3-29.8-97.8-22.3-141.3-4.4c-16,6.6-72.2,31.7-56.5,57c13.6,21.8,101.7,7.4,123.1,9.2
		c22.5,1.9,47.6,2.4,64.4-15.8C897.9,444.2,912.6,421,897.5,409.8z"/>
	<path class="st1" d="M955,629.6c23.2-2.7-38.2,43.4-39.9,44.9c-5.2,4.5-64.5,63.1-69.4,52C841.3,716.6,936.8,631.7,955,629.6z"/>
	<path class="st1" d="M1398.9,707.3c15.2,8.9,58.1-31.2,29.3-28.9C1420,679,1388.1,700.9,1398.9,707.3z"/>
</g>
<g id="Layer_13" class="st0">
	<path class="st1" d="M1543.9,748.3c16,68.4-43.2,163-96.7,199.9c-22,15.2-60.4,47.2-89.1,39.9c-28.9-7.3-35.5-49.4-41.5-73.8
		c-6.9-28-40.2-58.5-34.7-86c7.1-35.1,50.4-45.2,79.4-53c21.8-5.9,39-10.9,57.6-24.1c15.7-11.1,29.7-26.8,47.5-34.4
		C1498.8,703,1535.7,713.1,1543.9,748.3z"/>
	<path class="st1" d="M1160.9,708.3c5.5-30.1,54-17.6,37.6,15.6C1181.4,758.5,1155.2,739.3,1160.9,708.3z"/>
</g>
<g id="Layer_9" class="st0">
	<path class="st1" d="M1513.9,745.3c36,31.7-26.9,136.5-48.5,163c-35,42.9-93.4,26.6-122.5-16.8c-6.6-9.9-10-20.8-15.2-31.4
		c-4.9-10.1-20.2-25-21.5-35.3c-3.9-32.6,35.4-26.3,58.5-32C1411.3,781.3,1465.2,702.4,1513.9,745.3z"/>
</g>
<g id="Layer_7" class="st0">
	<path class="st1" d="M1409.9,868.3c28.3,32.1,73.9-33.9,56.8-45.6c-8.5-5.7-45.1,7.7-51.9,11.9
		C1399.4,844.2,1394.8,851.1,1409.9,868.3z"/>
</g>
</svg>
